<?xml version="1.0" encoding="UTF-8"?>
<svg version="1.1" xmlns="http://www.w3.org/2000/svg" width="500" height="500">
<path d="M0 0 C165 0 330 0 500 0 C500 165 500 330 500 500 C335 500 170 500 0 500 C0 335 0 170 0 0 Z " fill="#FEFEFE" transform="translate(0,0)"/>
<path d="M0 0 C1.18529297 0.01353516 1.18529297 0.01353516 2.39453125 0.02734375 C3.28205078 0.04474609 3.28205078 0.04474609 4.1875 0.0625 C4.1875 0.3925 4.1875 0.7225 4.1875 1.0625 C3.26710938 1.27003906 2.34671875 1.47757813 1.3984375 1.69140625 C-17.49828446 6.2905066 -33.17082777 15.35481314 -43.8125 32.0625 C-53.44483004 48.61241152 -56.34067288 66.26516526 -52.625 85.1015625 C-47.55679342 103.57127686 -35.86551666 118.57295483 -19.43359375 128.26953125 C-3.64704392 136.55164826 15.99351349 138.725276 33.1875 134.0625 C44.7049469 130.11514503 54.98630431 124.17493966 63.1875 115.0625 C63.71601563 114.53785156 64.24453125 114.01320313 64.7890625 113.47265625 C74.58549786 103.26623791 78.3716544 90.52958767 81.1875 77.0625 C81.5175 77.0625 81.8475 77.0625 82.1875 77.0625 C83.37934512 97.0148701 73.95135224 116.39280989 61.015625 131.1015625 C49.16171672 143.91682441 31.78796722 153.18746167 14.23413086 154.23950195 C-12.71927414 154.77545257 -12.71927414 154.77545257 -22.8125 150.0625 C-23.97523437 149.55332031 -25.13796875 149.04414063 -26.3359375 148.51953125 C-34.01413858 145.01911468 -40.56272437 140.71806946 -46.8125 135.0625 C-47.58207031 134.38574219 -48.35164063 133.70898438 -49.14453125 133.01171875 C-63.03639219 120.06649229 -71.24434121 101.44922396 -72.18359375 82.58984375 C-72.70586302 58.79921484 -66.46753884 39.61027124 -49.8125 22.0625 C-37.07749794 10.0193826 -17.96635714 -0.26815458 0 0 Z " fill="#82CC2B" transform="translate(129.8125,187.9375)"/>
<path d="M0 0 C3.83424319 1.05743515 7.49796121 2.33034004 11.16015625 3.8671875 C11.79373047 4.12371094 12.42730469 4.38023437 13.08007812 4.64453125 C14.92950261 5.40258578 16.76390484 6.19696844 18.59765625 6.9921875 C20.12918335 7.46724731 20.12918335 7.46724731 21.69165039 7.9519043 C24.97513841 10.25721467 25.12285508 10.75489899 25.92138672 14.49194336 C26.2138956 16.39287151 26.47652091 18.2985524 26.71484375 20.20703125 C26.86172638 21.21431778 27.00860901 22.22160431 27.15994263 23.25941467 C27.62301853 26.47982626 28.04785426 29.70402758 28.47265625 32.9296875 C28.78012722 35.09865242 29.08999531 37.26727898 29.40234375 39.43554688 C29.96598216 43.4095303 30.52275157 47.38408705 31.05029297 51.36303711 C31.2096785 52.56191811 31.2096785 52.56191811 31.37228394 53.78501892 C31.59765625 55.9921875 31.59765625 55.9921875 31.59765625 59.9921875 C29.61765625 59.3321875 27.63765625 58.6721875 25.59765625 57.9921875 C24.93765625 51.7221875 24.27765625 45.4521875 23.59765625 38.9921875 C23.45328125 41.0546875 23.30890625 43.1171875 23.16015625 45.2421875 C22.90152578 48.93690853 22.64648016 52.43147438 21.59765625 55.9921875 C20.27765625 55.6621875 18.95765625 55.3321875 17.59765625 54.9921875 C17.59765625 50.0421875 17.59765625 45.0921875 17.59765625 39.9921875 C16.60765625 44.2821875 15.61765625 48.5721875 14.59765625 52.9921875 C13.60765625 52.6621875 12.61765625 52.3321875 11.59765625 51.9921875 C11.92765625 47.3721875 12.25765625 42.7521875 12.59765625 37.9921875 C11.60765625 42.2821875 10.61765625 46.5721875 9.59765625 50.9921875 C8.60765625 50.6621875 7.61765625 50.3321875 6.59765625 49.9921875 C6.59765625 47.0221875 6.59765625 44.0521875 6.59765625 40.9921875 C5.93765625 43.6321875 5.27765625 46.2721875 4.59765625 48.9921875 C3.60765625 48.9921875 2.61765625 48.9921875 1.59765625 48.9921875 C1.92765625 43.7121875 2.25765625 38.4321875 2.59765625 32.9921875 C1.60765625 37.6121875 0.61765625 42.2321875 -0.40234375 46.9921875 C-1.39234375 46.9921875 -2.38234375 46.9921875 -3.40234375 46.9921875 C-3.23734375 46.0640625 -3.07234375 45.1359375 -2.90234375 44.1796875 C-2.32485987 41.03597397 -2.32485987 41.03597397 -2.40234375 37.9921875 C-3.39234375 40.3021875 -4.38234375 42.6121875 -5.40234375 44.9921875 C-6.39234375 44.9921875 -7.38234375 44.9921875 -8.40234375 44.9921875 C-7.82600236 40.23737104 -5.85165854 37.02170538 -3.40234375 32.9921875 C-6.04234375 36.2921875 -8.68234375 39.5921875 -11.40234375 42.9921875 C-12.06234375 42.6621875 -12.72234375 42.3321875 -13.40234375 41.9921875 C-11.9528392 38.2011756 -10.25061809 34.6047237 -8.40234375 30.9921875 C-8.95664063 31.7140625 -9.5109375 32.4359375 -10.08203125 33.1796875 C-10.80648437 34.1078125 -11.5309375 35.0359375 -12.27734375 35.9921875 C-12.99664062 36.9203125 -13.7159375 37.8484375 -14.45703125 38.8046875 C-15.09898438 39.5265625 -15.7409375 40.2484375 -16.40234375 40.9921875 C-17.06234375 40.9921875 -17.72234375 40.9921875 -18.40234375 40.9921875 C-17.84179714 37.62890787 -16.98393337 35.00106531 -15.40234375 31.9921875 C-15.81226562 32.4975 -16.2221875 33.0028125 -16.64453125 33.5234375 C-17.18335937 34.173125 -17.7221875 34.8228125 -18.27734375 35.4921875 C-19.07785156 36.46671875 -19.07785156 36.46671875 -19.89453125 37.4609375 C-20.39210938 37.96625 -20.8896875 38.4715625 -21.40234375 38.9921875 C-22.06234375 38.9921875 -22.72234375 38.9921875 -23.40234375 38.9921875 C-22.55863266 33.53230998 -20.16249365 29.73398348 -17.40234375 24.9921875 C-20.70234375 28.9521875 -24.00234375 32.9121875 -27.40234375 36.9921875 C-28.72234375 36.6621875 -30.04234375 36.3321875 -31.40234375 35.9921875 C-29.93415707 32.88476327 -28.20209375 30.08747011 -26.27734375 27.2421875 C-25.73851563 26.44296875 -25.1996875 25.64375 -24.64453125 24.8203125 C-24.23460938 24.21703125 -23.8246875 23.61375 -23.40234375 22.9921875 C-24.11519531 23.72566406 -24.82804687 24.45914062 -25.5625 25.21484375 C-26.52892471 26.16250293 -27.49643053 27.10906047 -28.46484375 28.0546875 C-29.16383789 28.78268555 -29.16383789 28.78268555 -29.87695312 29.52539062 C-31.3125 30.90234375 -31.3125 30.90234375 -34.40234375 32.9921875 C-38.2734375 32.80078125 -38.2734375 32.80078125 -41.40234375 31.9921875 C-37.91159406 28.41817222 -34.29132092 25.08173458 -30.46484375 21.8671875 C-29.90853271 21.39780762 -29.35222168 20.92842773 -28.77905273 20.44482422 C-24.01710378 16.45341502 -19.15623214 12.59458728 -14.24829102 8.78466797 C-13.42929321 8.14875732 -13.42929321 8.14875732 -12.59375 7.5 C-12.0589502 7.09168945 -11.52415039 6.68337891 -10.97314453 6.26269531 C-9.37143699 5.00823188 -9.37143699 5.00823188 -7.90576172 3.52636719 C-5.15864144 0.88920442 -3.86682991 -0.00887906 0 0 Z " fill="#57AFE5" transform="translate(139.40234375,239.0078125)"/>
<path d="M0 0 C2.97 0 5.94 0 9 0 C14.37129841 11.52164009 14.37129841 11.52164009 16 17 C18.09946114 13.85080829 19.24684003 10.91746355 20.5625 7.375 C22.89455185 1.10544815 22.89455185 1.10544815 24 0 C26.97 0 29.94 0 33 0 C33.99 9.9 34.98 19.8 36 30 C39.96 20.1 43.92 10.2 48 0 C50.64 0 53.28 0 56 0 C59.36816803 7.06019836 62.38112276 14.24965754 65.3125 21.5 C65.67408203 22.38461914 66.03566406 23.26923828 66.40820312 24.18066406 C66.74400391 25.01823242 67.07980469 25.85580078 67.42578125 26.71875 C67.88078003 27.84700195 67.88078003 27.84700195 68.3449707 28.99804688 C69 31 69 31 69 34 C66.36 34 63.72 34 61 34 C60.34 31.69 59.68 29.38 59 27 C56.8954294 27.00600448 54.79094889 27.05603446 52.6875 27.125 C50.92986328 27.15980469 50.92986328 27.15980469 49.13671875 27.1953125 C48.10160156 27.46085937 47.06648438 27.72640625 46 28 C45.01 29.98 44.02 31.96 43 34 C37.72 34 32.44 34 27 34 C26.34 28.39 25.68 22.78 25 17 C23.02 22.61 21.04 28.22 19 34 C17.35 34 15.7 34 14 34 C12.02 28.39 10.04 22.78 8 17 C7.67 17 7.34 17 7 17 C6.67 22.61 6.34 28.22 6 34 C3.36 34 0.72 34 -2 34 C-2.43300288 22.59759071 -1.12906604 11.33098418 0 0 Z " fill="#1F5B80" transform="translate(269,200)"/>
<path d="M0 0 C6.6 0 13.2 0 20 0 C20 2.31 20 4.62 20 7 C16.04 7 12.08 7 8 7 C8 8.98 8 10.96 8 13 C11.63 13 15.26 13 19 13 C19 15.31 19 17.62 19 20 C15.37 20 11.74 20 8 20 C8 22.31 8 24.62 8 27 C11.96 27 15.92 27 20 27 C20.33 28.32 20.66 29.64 21 31 C21.35827881 30.09644775 21.71655762 29.19289551 22.08569336 28.26196289 C23.41186217 24.91945176 24.74141972 21.57829747 26.07202148 18.23754883 C26.64814753 16.78967664 27.22334586 15.34143496 27.79760742 13.89282227 C28.62176533 11.8142946 29.44921768 9.73710555 30.27734375 7.66015625 C30.53466782 7.00910416 30.79199188 6.35805206 31.05711365 5.68727112 C32.88612829 1.11387171 32.88612829 1.11387171 34 0 C36.67058851 -0.14115161 39.32432238 -0.04247107 42 0 C43.85584011 4.51886436 45.70713411 9.0395535 47.55419922 13.56201172 C48.18347884 15.10093664 48.81400811 16.63935118 49.44580078 18.17724609 C50.35255984 20.38506917 51.25484123 22.59467556 52.15625 24.8046875 C52.44060913 25.49432587 52.72496826 26.18396423 53.01794434 26.89450073 C55 31.77225659 55 31.77225659 55 34 C52.36 34 49.72 34 47 34 C46.773125 33.030625 46.54625 32.06125 46.3125 31.0625 C44.3101582 27.70618959 44.3101582 27.70618959 40.90625 27.37890625 C37.59668756 27.14507847 34.31743742 27.00946487 31 27 C30.34 29.31 29.68 31.62 29 34 C19.43 34 9.86 34 0 34 C0 22.78 0 11.56 0 0 Z " fill="#1D5A7F" transform="translate(295,245)"/>
<path d="M0 0 C9 0 9 0 10.90795898 1.42114258 C11.26704346 2.07236084 11.62612793 2.7235791 11.99609375 3.39453125 C12.40923828 4.10287109 12.82238281 4.81121094 13.24804688 5.54101562 C13.64056641 6.29060547 14.03308594 7.04019531 14.4375 7.8125 C14.85708984 8.55048828 15.27667969 9.28847656 15.70898438 10.04882812 C16.48744298 11.42075277 17.25208288 12.80068213 17.99780273 14.19067383 C18.91349679 15.84383062 19.95171599 17.42757398 21 19 C21.33 12.73 21.66 6.46 22 0 C24.64 0 27.28 0 30 0 C30 11.22 30 22.44 30 34 C22 34 22 34 19.8984375 32.1640625 C19.39570313 31.32617188 18.89296875 30.48828125 18.375 29.625 C17.81425781 28.72265625 17.25351562 27.8203125 16.67578125 26.890625 C15.84626953 25.45976562 15.84626953 25.45976562 15 24 C14.12408203 22.56914062 14.12408203 22.56914062 13.23046875 21.109375 C11.79441416 18.75518715 10.39370837 16.37950209 9 14 C8.67 20.6 8.34 27.2 8 34 C5.36 34 2.72 34 0 34 C0 22.78 0 11.56 0 0 Z " fill="#205C81" transform="translate(351,245)"/>
<path d="M0 0 C2.475 0.99 2.475 0.99 5 2 C3.02747507 8.96133134 0.68279852 15.68290402 -1.984375 22.40625 C-2.36305725 23.37042847 -2.7417395 24.33460693 -3.13189697 25.32800293 C-4.33417437 28.38682978 -5.54191674 31.44346217 -6.75 34.5 C-7.5446477 36.51808081 -8.3389213 38.53630897 -9.1328125 40.5546875 C-9.52255753 41.54463715 -9.91230255 42.53458679 -10.31385803 43.55453491 C-11.09155214 45.53227111 -11.86763594 47.51064131 -12.64207458 49.48965454 C-14.43285796 54.059243 -16.24597789 58.61457854 -18.14086914 63.14208984 C-18.4698822 63.94360474 -18.79889526 64.74511963 -19.13787842 65.57092285 C-19.74045396 67.0364408 -20.35571632 68.49684952 -20.98736572 69.95007324 C-24.07261505 77.53772435 -23.19582456 85.06133276 -22 93 C-26.60416626 92.39124245 -30.56483324 91.15277044 -34.875 89.4375 C-36.02742187 88.98246094 -37.17984375 88.52742188 -38.3671875 88.05859375 C-39.67042969 87.53458984 -39.67042969 87.53458984 -41 87 C-41 86.01 -41 85.02 -41 84 C-39.39360907 82.88600322 -37.75194507 81.82279172 -36.09765625 80.78125 C-26.92590312 73.49905126 -24.25981658 62.18076311 -20.4375 51.5 C-19.61494999 49.27931463 -18.7889293 47.05991178 -17.95947266 44.84179688 C-16.3443396 40.51419739 -14.74396623 36.18165859 -13.15673828 31.84375 C-10.52495856 24.67575955 -7.73523265 17.57968696 -4.875 10.5 C-4.28223267 9.01016602 -4.28223267 9.01016602 -3.67749023 7.49023438 C-1.12881426 1.12881426 -1.12881426 1.12881426 0 0 Z " fill="#57B0E6" transform="translate(184,150)"/>
<path d="M0 0 C8 0 8 0 10.1015625 1.8359375 C10.60429687 2.67382812 11.10703125 3.51171875 11.625 4.375 C12.18574219 5.27734375 12.74648438 6.1796875 13.32421875 7.109375 C13.87722656 8.06328125 14.43023437 9.0171875 15 10 C15.87591797 11.43085938 15.87591797 11.43085938 16.76953125 12.890625 C18.20558584 15.24481285 19.60629163 17.62049791 21 20 C21.33 13.4 21.66 6.8 22 0 C24.31 0 26.62 0 29 0 C29 11.22 29 22.44 29 34 C21 34 21 34 18.99023438 32.25585938 C18.52939453 31.45986328 18.06855469 30.66386719 17.59375 29.84375 C17.078125 28.98652344 16.5625 28.12929688 16.03125 27.24609375 C15.5259375 26.33988281 15.020625 25.43367188 14.5 24.5 C13.96375 23.59378906 13.4275 22.68757813 12.875 21.75390625 C11.55695862 19.5179432 10.27490707 17.2608352 9 15 C8.67 21.27 8.34 27.54 8 34 C5.36 34 2.72 34 0 34 C0 22.78 0 11.56 0 0 Z " fill="#1A587D" transform="translate(398,245)"/>
<path d="M0 0 C17 0 17 0 23 5 C24.06846837 8.10129794 23.75134179 10.82706739 23 14 C21.56911177 16.6896765 19.99424488 18.65676227 18 21 C18.63808594 21.77085937 19.27617187 22.54171875 19.93359375 23.3359375 C21.17302734 24.84027344 21.17302734 24.84027344 22.4375 26.375 C23.67306641 27.87160156 23.67306641 27.87160156 24.93359375 29.3984375 C27 32 27 32 28 34 C24.4496993 34.73377822 21.52905665 34.91277122 18 34 C14.42604638 30.71907918 11.69991357 27.0172627 9 23 C8.67 26.63 8.34 30.26 8 34 C5.36 34 2.72 34 0 34 C0 22.78 0 11.56 0 0 Z " fill="#1B597E" transform="translate(340,200)"/>
<path d="M0 0 C2.90864241 1.37046414 5.44732785 3.05245722 8 5 C7.34 6.65 6.68 8.3 6 10 C2 10 2 10 -1 8 C-4.50260082 7.84516561 -4.50260082 7.84516561 -8 9 C-10.69966307 11.97655159 -11.83983465 14.0390079 -12.5 18 C-11.83251263 22.00492422 -10.80917015 24.05037134 -8 27 C-4.89962531 27.87958316 -3.31908453 27.5795227 0 27 C2.08216876 24.6450037 2.08216876 24.6450037 3 22 C0.69 22 -1.62 22 -4 22 C-4 20.02 -4 18.04 -4 16 C0.95 16 5.9 16 11 16 C11.48192771 24.91566265 11.48192771 24.91566265 9.5 29.375 C5.39360029 33.6867197 1.32403561 35.67381956 -4.5625 36.5 C-10.06187009 35.70009162 -13.55908762 33.55774312 -17.3125 29.5 C-21.24484967 23.67429678 -21.81325664 18.99400711 -21 12 C-16.82549156 3.32986709 -9.56321682 -1.42463135 0 0 Z " fill="#1E5B7F" transform="translate(452,244)"/>
<path d="M0 0 C2.64 0 5.28 0 8 0 C11.36816803 7.06019836 14.38112276 14.24965754 17.3125 21.5 C17.67408203 22.38461914 18.03566406 23.26923828 18.40820312 24.18066406 C18.74400391 25.01823242 19.07980469 25.85580078 19.42578125 26.71875 C19.72911377 27.47091797 20.03244629 28.22308594 20.3449707 28.99804688 C21 31 21 31 21 34 C18.36 34 15.72 34 13 34 C12.34 31.69 11.68 29.38 11 27 C6.5959216 27.01256513 2.32575123 27.13157267 -2 28 C-4.46974473 30.84100775 -4.46974473 30.84100775 -5 34 C-7.64 34 -10.28 34 -13 34 C-10.6065288 26.50151713 -7.76336589 19.2325793 -4.8125 11.9375 C-4.11737305 10.20983398 -4.11737305 10.20983398 -3.40820312 8.44726562 C-2.2745028 5.63054626 -1.13838499 2.81482853 0 0 Z " fill="#1D5A7F" transform="translate(317,200)"/>
<path d="M0 0 C6.6 0 13.2 0 20 0 C20 2.31 20 4.62 20 7 C16.04 7 12.08 7 8 7 C8 8.98 8 10.96 8 13 C11.63 13 15.26 13 19 13 C19 15.31 19 17.62 19 20 C15.37 20 11.74 20 8 20 C8 22.31 8 24.62 8 27 C11.96 27 15.92 27 20 27 C20.33 29.31 20.66 31.62 21 34 C14.07 34 7.14 34 0 34 C0 22.78 0 11.56 0 0 Z " fill="#1F5C80" transform="translate(295,245)"/>
<path d="M0 0 C-1.07401108 2.91517292 -1.77810176 4.77810176 -4 7 C-4.66 6.67 -5.32 6.34 -6 6 C-10.73790088 5.34842228 -13.99519212 5.34379893 -18.0625 8 C-20.20766662 11.32154831 -20.7595293 13.17868019 -20.47265625 17.0625 C-19.59426669 20.66317126 -18.05067422 22.00772296 -15 24 C-10.74413726 24.64098808 -7.07452913 24.35817638 -3 23 C0 27.75 0 27.75 0 30 C-5.79548638 32.44020479 -10.75478761 34.43946857 -17.0390625 32.30859375 C-22.90119645 29.68490458 -26.25241948 26.24550669 -29.3125 20.5625 C-30.65544742 15.5569687 -30.50546925 12.12758524 -28.375 7.375 C-21.55832958 -3.34379272 -10.9588546 -5.4794273 0 0 Z " fill="#1F5C80" transform="translate(269,247)"/>
<path d="M0 0 C2.46446682 0.82786944 4.65572814 1.85178521 7 3 C6.25 5.4375 6.25 5.4375 5 8 C1.67997395 9.66001303 -1.47880922 8.72024357 -5 8 C-5.33 9.32 -5.66 10.64 -6 12 C-4.86111328 12.58007812 -4.86111328 12.58007812 -3.69921875 13.171875 C-2.70535156 13.69265625 -1.71148437 14.2134375 -0.6875 14.75 C0.29863281 15.26046875 1.28476562 15.7709375 2.30078125 16.296875 C4.99197441 17.9949361 6.39580483 19.27984297 8 22 C8.43371102 25.39740298 8.19671024 27.5024388 6.9375 30.6875 C3.57395232 34.70205691 -0.3536043 35.79045873 -5.4375 36.4375 C-9.90312101 35.8890904 -13.14847919 34.24088483 -17 32 C-16.125 27.25 -16.125 27.25 -15 25 C-14.154375 25.33 -13.30875 25.66 -12.4375 26 C-8.79010784 27.06105954 -5.77725336 27.15109013 -2 27 C-2 25.68 -2 24.36 -2 23 C-2.90492188 22.54560547 -2.90492188 22.54560547 -3.828125 22.08203125 C-12.43661187 17.56951797 -12.43661187 17.56951797 -15 13 C-15.5625 10 -15.5625 10 -15 7 C-10.43507173 1.57143666 -7.13309557 -0.59442463 0 0 Z " fill="#215D81" transform="translate(257,199)"/>
<path d="M0 0 C7.92 0 15.84 0 24 0 C24 2.31 24 4.62 24 7 C21.36 7 18.72 7 16 7 C16 15.91 16 24.82 16 34 C13.36 34 10.72 34 8 34 C8 25.09 8 16.18 8 7 C5.36 7 2.72 7 0 7 C0 4.69 0 2.38 0 0 Z " fill="#215D81" transform="translate(367,200)"/>
<path d="M0 0 C2.64 0 5.28 0 8 0 C8 8.91 8 17.82 8 27 C11.63 27 15.26 27 19 27 C19 29.31 19 31.62 19 34 C12.73 34 6.46 34 0 34 C0 22.78 0 11.56 0 0 Z " fill="#205C80" transform="translate(272,245)"/>
<path d="M0 0 C2.64 0 5.28 0 8 0 C8 11.22 8 22.44 8 34 C5.36 34 2.72 34 0 34 C0 22.78 0 11.56 0 0 Z " fill="#245F83" transform="translate(386,245)"/>
<path d="M0 0 C2.64 0 5.28 0 8 0 C8 11.22 8 22.44 8 34 C5.36 34 2.72 34 0 34 C0 22.78 0 11.56 0 0 Z " fill="#1C597E" transform="translate(394,200)"/>
<path d="M0 0 C0.66 0 1.32 0 2 0 C2.350625 0.94875 2.70125 1.8975 3.0625 2.875 C4.7714341 6.34336062 4.7714341 6.34336062 8.6875 7.375 C9.780625 7.58125 10.87375 7.7875 12 8 C12 8.33 12 8.66 12 9 C10.88625 9.28875 9.7725 9.5775 8.625 9.875 C4.99708908 10.69241329 4.99708908 10.69241329 3 13 C2.3574765 15.06874034 2.3574765 15.06874034 2 17 C1.34 17 0.68 17 0 17 C-0.2475 16.21625 -0.495 15.4325 -0.75 14.625 C-1.75978957 11.95803866 -1.75978957 11.95803866 -3.75 10.75 C-6.47487736 9.84170755 -9.15769026 9.38758769 -12 9 C-12 8.67 -12 8.34 -12 8 C-11.38511719 7.92523438 -10.77023438 7.85046875 -10.13671875 7.7734375 C-7.62524452 7.36487231 -5.37891772 6.91107487 -3 6 C-0.85334283 3.04765553 -0.85334283 3.04765553 0 0 Z " fill="#5CB2E6" transform="translate(192,230)"/>
<path d="M0 0 C2.375 -0.125 2.375 -0.125 5 0 C7 2 7 2 7.25 4.5 C7 7 7 7 5 9 C2.375 9.125 2.375 9.125 0 9 C0 6.03 0 3.06 0 0 Z " fill="#F3F6F8" transform="translate(348,206)"/>
<path d="M0 0 C2.625 0.375 2.625 0.375 5 1 C5.625 2.8125 5.625 2.8125 6 5 C5.01 6.485 5.01 6.485 4 8 C1.5 8.3125 1.5 8.3125 -1 8 C-1.66 7.34 -2.32 6.68 -3 6 C-2.63318342 3.06546739 -2.13562754 2.13562754 0 0 Z " fill="#BCE48D" transform="translate(290,294)"/>
<path d="M0 0 C2.625 0.375 2.625 0.375 5 1 C5.625 3.375 5.625 3.375 6 6 C4 8 4 8 1.4375 8.1875 C-1 8 -1 8 -2 7 C-2.1875 4.5625 -2.1875 4.5625 -2 2 C-1.34 1.34 -0.68 0.68 0 0 Z " fill="#D7EFBB" transform="translate(247,294)"/>
<path d="M0 0 C2 3 2 3 3 5 C5.01669827 6.13350534 5.01669827 6.13350534 7 7 C5.35 7.33 3.7 7.66 2 8 C1.67 9.65 1.34 11.3 1 13 C0.6596875 12.071875 0.6596875 12.071875 0.3125 11.125 C-1.37929835 8.38589791 -2.99244161 7.94975528 -6 7 C-5.071875 6.6596875 -5.071875 6.6596875 -4.125 6.3125 C-1.38589791 4.62070165 -0.94975528 3.00755839 0 0 Z " fill="#64B5E7" transform="translate(223,226)"/>
<path d="M0 0 C1.65 0 3.3 0 5 0 C5.79953138 3.28696233 6.09658936 4.71023192 5 8 C3.68 7.34 2.36 6.68 1 6 C0.67 6.66 0.34 7.32 0 8 C0 5.36 0 2.72 0 0 Z " fill="#CAEAA6" transform="translate(449,294)"/>
<path d="M0 0 C2.6855594 2.6855594 3.06049974 5.37621328 4 9 C1.69 9 -0.62 9 -3 9 C-2.5020163 5.26512223 -2.12508244 3.18762365 0 0 Z " fill="#E7EDF1" transform="translate(321,211)"/>
<path d="M0 0 C2.97 0.495 2.97 0.495 6 1 C5.67 2.98 5.34 4.96 5 7 C3.68 6.67 2.36 6.34 1 6 C0.67 6.66 0.34 7.32 0 8 C0 5.36 0 2.72 0 0 Z " fill="#C7E8A1" transform="translate(339,294)"/>
<path d="M0 0 C2.97 0.495 2.97 0.495 6 1 C5.67 2.98 5.34 4.96 5 7 C3.68 6.67 2.36 6.34 1 6 C0.67 6.66 0.34 7.32 0 8 C0 5.36 0 2.72 0 0 Z " fill="#C7E8A1" transform="translate(237,294)"/>
<path d="M0 0 C0.33 0 0.66 0 1 0 C1.26618595 6.95041086 0.6120509 13.23514355 -1 20 C-1.99 19.34 -2.98 18.68 -4 18 C-2.68 12.06 -1.36 6.12 0 0 Z " fill="#A5DB67" transform="translate(211,265)"/>
<path d="M0 0 C2 1 2 1 3.125 3.375 C4 6 4 6 4 9 C2.02 9 0.04 9 -2 9 C-1.125 2.25 -1.125 2.25 0 0 Z " fill="#ECF1F4" transform="translate(332,256)"/>
<path d="M0 0 C2.475 0.495 2.475 0.495 5 1 C5.33 2.32 5.66 3.64 6 5 C5.195625 5.12375 4.39125 5.2475 3.5625 5.375 C2.2940625 5.684375 2.2940625 5.684375 1 6 C0.67 6.66 0.34 7.32 0 8 C0 5.36 0 2.72 0 0 Z " fill="#C9E9A3" transform="translate(229,294)"/>
<path d="M0 0 C0 0.33 0 0.66 0 1 C-5.28 2.32 -10.56 3.64 -16 5 C-16 4.34 -16 3.68 -16 3 C-16.66 2.67 -17.32 2.34 -18 2 C-11.85221129 0.3722167 -6.35987804 -0.20190089 0 0 Z " fill="#A9DC6D" transform="translate(134,188)"/>
<path d="M0 0 C0.66 0 1.32 0 2 0 C2.33 0.66 2.66 1.32 3 2 C5.01669827 3.13350534 5.01669827 3.13350534 7 4 C5.35 4.33 3.7 4.66 2 5 C2 5.66 2 6.32 2 7 C-0.49361571 5.79618552 -2.68143083 4.54571278 -5 3 C-4.360625 2.87625 -3.72125 2.7525 -3.0625 2.625 C-2.0415625 2.315625 -2.0415625 2.315625 -1 2 C-0.67 1.34 -0.34 0.68 0 0 Z " fill="#8CD03C" transform="translate(91,250)"/>
<path d="M0 0 C1.625 1.375 1.625 1.375 3 3 C3 3.66 3 4.32 3 5 C0.5 6.625 0.5 6.625 -2 8 C-3.5 6.625 -3.5 6.625 -5 5 C-5 3 -5 3 -3.625 1.375 C-2 0 -2 0 0 0 Z " fill="#5AB1E6" transform="translate(213,206)"/>
<path d="M0 0 C0.33 0 0.66 0 1 0 C0.67 5.61 0.34 11.22 0 17 C-0.99 17.33 -1.98 17.66 -3 18 C-2.32418477 11.91766294 -1.26361972 5.98685848 0 0 Z " fill="#CAE6F7" transform="translate(142,267)"/>
<path d="M0 0 C2.0625 0.4375 2.0625 0.4375 4 1 C3.01 1.66 2.02 2.32 1 3 C1.99 3.66 2.98 4.32 4 5 C3.67 5.99 3.34 6.98 3 8 C1.35 8 -0.3 8 -2 8 C-2 7.34 -2 6.68 -2 6 C-1.34 6 -0.68 6 0 6 C-0.2784375 4.7934375 -0.2784375 4.7934375 -0.5625 3.5625 C-0.706875 2.716875 -0.85125 1.87125 -1 1 C-0.67 0.67 -0.34 0.34 0 0 Z " fill="#C9E9A4" transform="translate(278,294)"/>
<path d="M0 0 C1.98 0 3.96 0 6 0 C6 0.66 6 1.32 6 2 C4.68 2 3.36 2 2 2 C2 2.66 2 3.32 2 4 C2.99 4.33 3.98 4.66 5 5 C3.68 5 2.36 5 1 5 C1 5.66 1 6.32 1 7 C2.65 7 4.3 7 6 7 C6 7.33 6 7.66 6 8 C4.02 8 2.04 8 0 8 C0 5.36 0 2.72 0 0 Z " fill="#C0E594" transform="translate(416,294)"/>
<path d="M0 0 C1.98 0 3.96 0 6 0 C6 0.66 6 1.32 6 2 C4.68 2 3.36 2 2 2 C2 2.66 2 3.32 2 4 C2.99 4.33 3.98 4.66 5 5 C3.68 5 2.36 5 1 5 C1 5.66 1 6.32 1 7 C2.65 7 4.3 7 6 7 C6 7.33 6 7.66 6 8 C4.02 8 2.04 8 0 8 C0 5.36 0 2.72 0 0 Z " fill="#C0E594" transform="translate(262,294)"/>
<path d="M0 0 C0.66 0 1.32 0 2 0 C2.99 2.31 3.98 4.62 5 7 C4.34 7 3.68 7 3 7 C3 6.34 3 5.68 3 5 C1.02 5.66 -0.96 6.32 -3 7 C-1.125 1.125 -1.125 1.125 0 0 Z " fill="#BCE48D" transform="translate(426,295)"/>
<path d="M0 0 C1.2065625 0.0309375 1.2065625 0.0309375 2.4375 0.0625 C1.1175 0.3925 -0.2025 0.7225 -1.5625 1.0625 C-1.5625 2.0525 -1.5625 3.0425 -1.5625 4.0625 C-0.5725 4.3925 0.4175 4.7225 1.4375 5.0625 C0.4475 5.0625 -0.5425 5.0625 -1.5625 5.0625 C-1.5625 5.7225 -1.5625 6.3825 -1.5625 7.0625 C-0.2425 7.3925 1.0775 7.7225 2.4375 8.0625 C0.4575 8.0625 -1.5225 8.0625 -3.5625 8.0625 C-3.60491723 5.72955225 -3.60342937 3.39547433 -3.5625 1.0625 C-2.5625 0.0625 -2.5625 0.0625 0 0 Z " fill="#BCE48E" transform="translate(444.5625,293.9375)"/>
<path d="M0 0 C0.99 0.33 1.98 0.66 3 1 C3.33 2.65 3.66 4.3 4 6 C2.35 5.67 0.7 5.34 -1 5 C-1 5.66 -1 6.32 -1 7 C-1.66 6.67 -2.32 6.34 -3 6 C-2.01 4.02 -1.02 2.04 0 0 Z " fill="#BBE38C" transform="translate(349,295)"/>
<path d="M0 0 C1.65 0 3.3 0 5 0 C4.67 1.65 4.34 3.3 4 5 C2.68 4.67 1.36 4.34 0 4 C0 2.68 0 1.36 0 0 Z " fill="#FEFEFD" transform="translate(289,296)"/>
<path d="M0 0 C1.18414294 3.55242882 0.69535532 4.69830562 -0.4375 8.1875 C-0.72496094 9.08855469 -1.01242188 9.98960937 -1.30859375 10.91796875 C-1.53675781 11.60503906 -1.76492187 12.29210937 -2 13 C-2.66 12.34 -3.32 11.68 -4 11 C-3.65561395 6.86736741 -1.93570031 3.61891796 0 0 Z " fill="#DCEEF9" transform="translate(138,273)"/>
<path d="M0 0 C0.33 0.66 0.66 1.32 1 2 C0.00390625 4.3828125 0.00390625 4.3828125 -1.4375 7.125 C-1.91058594 8.03507812 -2.38367188 8.94515625 -2.87109375 9.8828125 C-3.24363281 10.58148438 -3.61617188 11.28015625 -4 12 C-4.33 11.34 -4.66 10.68 -5 10 C-5.66 9.67 -6.32 9.34 -7 9 C-4.69 6.03 -2.38 3.06 0 0 Z " fill="#DDEFF9" transform="translate(125,268)"/>
<path d="M0 0 C0.33 0.66 0.66 1.32 1 2 C-0.21484375 4.3828125 -0.21484375 4.3828125 -1.9375 7.125 C-2.50339844 8.03507812 -3.06929687 8.94515625 -3.65234375 9.8828125 C-4.09707031 10.58148438 -4.54179688 11.28015625 -5 12 C-5.66 11.67 -6.32 11.34 -7 11 C-5.22054913 6.95579349 -2.60470327 3.53921513 0 0 Z " fill="#DAEDF9" transform="translate(132,267)"/>
<path d="M0 0 C0 4.24645065 -1.81750806 6.38524772 -4 10 C-4.99 10 -5.98 10 -7 10 C-5.33248852 6.05860922 -2.77289351 3.2107188 0 0 Z " fill="#E5F2FB" transform="translate(122,263)"/>
<path d="M0 0 C0.33 0 0.66 0 1 0 C1.36923077 7.50769231 1.36923077 7.50769231 -0.5 10 C-0.995 10.33 -1.49 10.66 -2 11 C-1 3.57142857 -1 3.57142857 0 0 Z " fill="#E7F4FB" transform="translate(146,276)"/>
</svg>
